# xmcd CD database file
#
# Track frame offsets:
#	225
#	14447
#	35941
#	54114
#	68591
#	86721
#	99325
#	114655
#	131292
#	143902
#	156999
#	171541
#	181441
#	195653
#	204834
#	216183
#
# Disc length: 3229 seconds
#
# Revision: 0
# Processed by: cddbd v1.5.1PL0 Copyright (c) Steve Scherf et al.
# Submitted via: CDex 1.51
#
DISCID=e40c9a10
DTITLE=Various Artist - Deutsche Schlager
DYEAR=1900
DGENRE=Deutsch
TTITLE0=Costa Cordales - Anita
TTITLE1=Christian Anders - Es F‰Hrt Ein Zug Nach Nirgendwo
TTITLE2=Drafi Deutscher - Marmor, Stein Und Eisen Bricht
TTITLE3=Bata Illic - Michaela
TTITLE4=J¸rgen Marcus - Ein Festival Der Liebe
TTITLE5=Manuela - Schuld War Nur Der Bossa Nova
TTITLE6=Demis Roussos - Schˆnes M‰Dchen Aus Arcadia
TTITLE7=Roy Black - Ganz In Weiﬂ
TTITLE8=Peggy March - Mit 17 Hat Man Noch Tr‰Ume
TTITLE9=Peter Kraus - Wenn Teenager Tr‰Umen
TTITLE10=Freddy Quinn - Junge, Komm Bald Wieder
TTITLE11=Ireen Sheer - Spiel Mir Eine Alte Melodie
TTITLE12=Mandy and Die Bambies
TTITLE13=Erik Silvester - Caprifischer
TTITLE14=Chris Howland - Das Hab Ich In Paris Gelernt
TTITLE15=Vicky Leandros - Ich Hab Die Liebe Gesehen,Jaja Der Peter..,Die Bouzouki..
EXTD=
EXTT0=
EXTT1=
EXTT2=
EXTT3=
EXTT4=
EXTT5=
EXTT6=
EXTT7=
EXTT8=
EXTT9=
EXTT10=
EXTT11=
EXTT12=
EXTT13=
EXTT14=
EXTT15=
PLAYORDER=
